<?xml version="1.0" encoding="UTF-8" standalone="no"?>
<!DOCTYPE svg PUBLIC "-//W3C//DTD SVG 1.1//EN" "http://www.w3.org/Graphics/SVG/1.1/DTD/svg11.dtd">
<svg width="100%" height="100%" viewBox="0 0 1335 993" version="1.1" xmlns="http://www.w3.org/2000/svg" xmlns:xlink="http://www.w3.org/1999/xlink" xml:space="preserve" xmlns:serif="http://www.serif.com/" style="fill-rule:evenodd;clip-rule:evenodd;stroke-linejoin:round;stroke-miterlimit:2;">
    <g transform="matrix(1,0,0,1,-4897.66,-16164.3)">
        <g transform="matrix(1.50833,0,0,1.44374,2970.54,15881.1)">
            <g id="Full-Stacked-Logo" serif:id="Full Stacked Logo" transform="matrix(1,0,0,1,0.079248,-33.3161)">
                <g id="Full-Lettermark" serif:id="Full Lettermark" transform="matrix(2.30258,0,0,0.692648,-2616.06,-2327.14)">
                    <g transform="matrix(0.149063,0,0,0.287169,1613.06,3457.09)">
                        <path d="M522.894,3818.53L546.587,3818.53L546.587,3434.11L522.894,3434.11L522.894,3294.01L740.393,3294.01C779.881,3294.01 810.682,3308.54 832.795,3337.58C854.909,3366.63 865.965,3408.2 865.965,3462.3C865.965,3495.91 861.543,3524.24 852.697,3547.3C843.852,3570.37 833.506,3587.74 821.66,3599.41C809.813,3611.09 798.362,3618.92 787.305,3622.91L787.305,3631.45C809.734,3635.43 829.952,3648.25 847.959,3669.89C865.965,3691.53 874.968,3730.26 874.968,3786.07C874.968,3845.87 862.49,3889.58 837.534,3917.2C812.577,3944.82 780.197,3958.63 740.393,3958.63L522.894,3958.63L522.894,3818.53ZM704.854,3574.21C714.016,3574.21 720.886,3569.8 725.467,3560.97C730.048,3552.14 732.338,3538.33 732.338,3519.54L732.338,3488.79C732.338,3469.99 730.048,3456.18 725.467,3447.36C720.886,3438.53 714.016,3434.11 704.854,3434.11L679.266,3434.11L679.266,3574.21L704.854,3574.21ZM708.171,3818.53C717.333,3818.53 724.203,3814.12 728.784,3805.29C733.365,3796.46 735.655,3782.65 735.655,3763.86L735.655,3726.27C735.655,3707.48 733.365,3693.67 728.784,3684.84C724.203,3676.01 717.333,3671.6 708.171,3671.6L679.266,3671.6L679.266,3818.53L708.171,3818.53Z" style="fill:white;fill-rule:nonzero;"/>
                        <path d="M1165.44,3818.53L1165.44,3958.63L1040.34,3958.63L1040.34,3900.54C1033.39,3918.76 1023.68,3934.99 1011.2,3949.23C998.724,3963.47 983.481,3970.59 965.475,3970.59C941.782,3970.59 923.144,3959.2 909.56,3936.42C895.976,3913.64 889.184,3881.46 889.184,3839.89C889.184,3732.25 939.887,3677.01 1041.29,3674.16C1040.34,3654.8 1036.24,3641.56 1028.97,3634.44C1021.71,3627.32 1009.39,3623.76 992.011,3623.76C977.795,3623.76 962.553,3626.46 946.284,3631.88C930.015,3637.28 915.088,3644.55 901.504,3653.66L901.504,3496.47C918.247,3489.07 936.412,3483.09 955.998,3478.53C975.584,3473.98 994.696,3471.7 1013.33,3471.7C1060.4,3471.7 1094.05,3487.08 1114.27,3517.83C1134.48,3548.58 1144.59,3596.14 1144.59,3660.49L1144.59,3818.53L1165.44,3818.53ZM1040.34,3758.73C1026.13,3758.73 1015.15,3762.15 1007.41,3768.98C999.671,3775.82 995.802,3787.21 995.802,3803.15C995.802,3812.84 997.46,3820.67 1000.78,3826.64C1004.09,3832.62 1008.75,3835.62 1014.76,3835.62C1022.97,3835.62 1029.29,3829.35 1033.71,3816.82C1038.13,3804.29 1040.34,3786.64 1040.34,3763.86L1040.34,3758.73Z" style="fill:white;fill-rule:nonzero;"/>
                        <path d="M1492.4,3818.53L1492.4,3958.63L1362.57,3958.63L1362.57,3892C1339.82,3944.39 1311.39,3970.59 1277.27,3970.59C1251.05,3970.59 1231.39,3955.78 1218.28,3926.17C1205.17,3896.55 1198.61,3855.83 1198.61,3804.01L1198.61,3623.76L1177.76,3623.76L1177.76,3483.66L1307.6,3483.66L1307.6,3763.86C1307.6,3782.65 1309.89,3796.46 1314.47,3805.29C1319.05,3814.12 1325.92,3818.53 1335.08,3818.53C1344.24,3818.53 1351.11,3814.12 1355.69,3805.29C1360.28,3796.46 1362.57,3782.65 1362.57,3763.86L1362.57,3623.76L1336.98,3623.76L1336.98,3483.66L1471.55,3483.66L1471.55,3818.53L1492.4,3818.53Z" style="fill:white;fill-rule:nonzero;"/>
                        <g transform="matrix(1,0,0,1,1.89542,0)">
                            <path d="M1984.26,3818.53L1984.26,3958.63L1834.53,3958.63L1834.53,3818.53L1854.43,3818.53L1854.43,3678.43C1854.43,3659.64 1852.22,3645.83 1847.79,3637C1843.37,3628.17 1836.74,3623.76 1827.89,3623.76C1808.94,3623.76 1799.46,3641.98 1799.46,3678.43L1799.46,3818.53L1819.36,3818.53L1819.36,3958.63L1670.57,3958.63L1670.57,3818.53L1690.47,3818.53L1690.47,3678.43C1690.47,3659.64 1688.26,3645.83 1683.84,3637C1679.42,3628.17 1672.78,3623.76 1663.94,3623.76C1644.98,3623.76 1635.51,3641.98 1635.51,3678.43L1635.51,3818.53L1655.41,3818.53L1655.41,3958.63L1505.67,3958.63L1505.67,3818.53L1526.52,3818.53L1526.52,3623.76L1505.67,3623.76L1505.67,3483.66L1635.51,3483.66L1635.51,3550.29C1658.25,3497.9 1686.68,3471.7 1720.8,3471.7C1740.07,3471.7 1755.79,3479.82 1767.95,3496.05C1780.11,3512.28 1788.72,3535.2 1793.77,3564.82C1805.15,3535.2 1818.18,3512.42 1832.87,3496.47C1847.56,3480.53 1864.85,3472.56 1884.76,3472.56C1910.98,3472.56 1930.64,3487.36 1943.75,3516.98C1956.86,3546.59 1963.41,3587.31 1963.41,3639.14L1963.41,3818.53L1984.26,3818.53Z" style="fill:white;fill-rule:nonzero;"/>
                        </g>
                        <path d="M2078.09,3958.63L2015.54,3623.76L1995.64,3623.76L1995.64,3483.66L2142.06,3483.66L2142.06,3623.76L2122.16,3623.76L2139.22,3757.02L2143.95,3757.02L2178.55,3483.66L2265.74,3483.66L2300.33,3757.02L2305.07,3757.02L2321.65,3623.76L2301.75,3623.76L2301.75,3483.66L2439.17,3483.66L2439.17,3623.76L2419.26,3623.76L2359.08,3958.63L2243.94,3958.63L2217.88,3721.14L2213.14,3721.14L2187.08,3958.63L2078.09,3958.63Z" style="fill:white;fill-rule:nonzero;"/>
                        <path d="M2593.64,3970.59C2548.78,3970.59 2513.72,3949.37 2488.45,3906.95C2463.17,3864.52 2450.54,3802.58 2450.54,3721.14C2450.54,3639.7 2463.17,3577.77 2488.45,3535.34C2513.72,3492.91 2548.78,3471.7 2593.64,3471.7C2638.18,3471.7 2670.33,3492.63 2690.07,3534.49C2709.82,3576.35 2719.69,3628.32 2719.69,3690.39L2719.69,3751.9L2566.16,3751.9L2566.16,3757.02C2566.16,3778.1 2569.63,3793.61 2576.58,3803.58C2583.53,3813.55 2595.06,3818.53 2611.18,3818.53C2630.45,3818.53 2648.77,3815.97 2666.14,3810.84C2683.52,3805.72 2698.68,3799.17 2711.63,3791.19L2711.63,3927.88C2700.58,3938.7 2684.39,3948.52 2663.06,3957.35C2641.74,3966.17 2618.6,3970.59 2593.64,3970.59ZM2621.13,3657.93L2621.13,3647.68C2621.13,3628.32 2618.84,3614.36 2614.26,3605.82C2609.68,3597.28 2602.8,3593.01 2593.64,3593.01C2584.48,3593.01 2577.61,3597.42 2573.03,3606.25C2568.45,3615.07 2566.16,3628.89 2566.16,3647.68L2566.16,3657.93L2621.13,3657.93Z" style="fill:white;fill-rule:nonzero;"/>
                        <path d="M2733.9,3959.48L2733.9,3818.53L2754.75,3818.53L2754.75,3434.11L2733.9,3434.11L2733.9,3294.01L2863.74,3294.01L2863.74,3818.53L2884.59,3818.53L2884.59,3959.48L2733.9,3959.48Z" style="fill:white;fill-rule:nonzero;"/>
                        <path d="M3016.8,3970.59C2983.31,3970.59 2958.12,3955.92 2941.22,3926.59C2924.32,3897.26 2915.87,3847.86 2915.87,3778.38L2915.87,3623.76L2895.01,3623.76L2895.01,3483.66C2907.02,3483.66 2916.02,3478.11 2922.03,3467C2928.03,3455.9 2931.03,3440.66 2931.03,3421.3L2931.03,3382.86L3031.49,3382.86L3031.49,3483.66L3095.46,3483.66L3095.46,3623.76L3031.49,3623.76L3031.49,3763.86C3031.49,3782.65 3033.78,3796.46 3038.36,3805.29C3042.94,3814.12 3049.81,3818.53 3058.97,3818.53C3070.97,3818.53 3084.08,3815.97 3098.3,3810.84L3098.3,3944.96C3089.45,3951.22 3077.53,3957.06 3062.52,3962.47C3047.52,3967.88 3032.28,3970.59 3016.8,3970.59Z" style="fill:white;fill-rule:nonzero;"/>
                    </g>
                    <g transform="matrix(0.149063,0,0,0.103352,1613.06,4290.87)">
                        <path d="M522.799,3792.47L522.799,3294.01L541.563,3294.01L541.563,3707.02L587.054,3707.02L587.054,3792.47L522.799,3792.47Z" style="fill:rgb(255,206,50);fill-rule:nonzero;"/>
                        <path d="M642.779,3792.47L668.936,3294.01L701.632,3294.01L727.789,3792.47L708.455,3792.47L703.053,3682.81L667.514,3682.81L662.112,3792.47L642.779,3792.47ZM671.921,3595.94L698.647,3595.94L686.563,3353.12L684.004,3353.12L671.921,3595.94Z" style="fill:rgb(255,206,50);fill-rule:nonzero;"/>
                        <path d="M789.485,3792.47L789.485,3294.01L825.166,3294.01L844.926,3728.39L847.485,3728.39L847.485,3294.01L865.965,3294.01L865.965,3792.47L830.284,3792.47L810.524,3358.1L807.965,3358.1L807.965,3792.47L789.485,3792.47Z" style="fill:rgb(255,206,50);fill-rule:nonzero;"/>
                        <path d="M931.641,3792.47L931.641,3709.87L944.72,3709.87L944.72,3376.62L931.641,3376.62L931.641,3294.01L972.582,3294.01C985.945,3294.01 996.109,3310.99 1003.08,3344.93C1010.04,3378.87 1013.52,3429.31 1013.52,3496.25L1013.52,3590.24C1013.52,3657.18 1010.04,3707.62 1003.08,3741.56C996.109,3775.5 985.945,3792.47 972.582,3792.47L931.641,3792.47ZM963.484,3707.02L972.867,3707.02C980.448,3707.02 985.993,3697.05 989.499,3677.12C993.006,3657.18 994.759,3629.17 994.759,3593.09L994.759,3493.4C994.759,3456.85 993.006,3428.72 989.499,3409.02C985.993,3389.32 980.448,3379.47 972.867,3379.47L963.484,3379.47L963.484,3707.02Z" style="fill:rgb(255,206,50);fill-rule:nonzero;"/>
                        <path d="M1113.46,3802.44C1105.78,3802.44 1099.01,3795.56 1093.13,3781.79C1087.26,3768.03 1082.66,3748.32 1079.34,3722.69C1076.03,3697.05 1074.37,3666.2 1074.37,3630.12L1074.37,3610.18L1092.85,3610.18L1092.85,3630.12C1092.85,3660.03 1094.69,3682.46 1098.39,3697.41C1102.09,3712.36 1107.11,3719.84 1113.46,3719.84C1119.9,3719.84 1124.71,3713.43 1127.89,3700.61C1131.06,3687.8 1132.65,3671.42 1132.65,3651.48C1132.65,3637.71 1131.87,3626.56 1130.31,3618.01C1128.74,3609.47 1126.47,3602.47 1123.48,3597.01C1120.5,3591.55 1116.87,3586.44 1112.61,3581.7L1109.34,3578.14C1102.51,3570.54 1096.66,3560.93 1091.78,3549.3C1086.9,3537.67 1083.16,3522.36 1080.55,3503.37C1077.94,3484.38 1076.64,3459.69 1076.64,3429.31C1076.64,3398.93 1078.09,3372.94 1080.98,3351.34C1083.87,3329.74 1087.94,3313.12 1093.2,3301.49C1098.46,3289.86 1104.65,3284.05 1111.75,3284.05C1118.86,3284.05 1125.19,3290.1 1130.73,3302.2C1136.28,3314.31 1140.63,3332.35 1143.81,3356.32C1146.99,3380.3 1148.57,3410.32 1148.57,3446.4L1148.57,3467.76L1130.09,3467.76L1130.09,3446.4C1130.09,3427.41 1129.36,3412.1 1127.89,3400.47C1126.42,3388.84 1124.31,3380.3 1121.56,3374.84C1118.81,3369.38 1115.55,3366.65 1111.75,3366.65C1106.07,3366.65 1101.87,3371.99 1099.17,3382.67C1096.47,3393.35 1095.12,3407.95 1095.12,3426.46C1095.12,3438.81 1095.76,3449.25 1097.04,3457.79C1098.32,3466.34 1100.24,3473.46 1102.8,3479.16C1105.36,3484.85 1108.63,3489.84 1112.61,3494.11L1115.88,3497.67C1122.98,3505.27 1129.17,3515 1134.43,3526.87C1139.69,3538.73 1143.79,3554.4 1146.72,3573.86C1149.66,3593.33 1151.13,3618.25 1151.13,3648.63C1151.13,3679.01 1149.59,3705.72 1146.51,3728.74C1143.43,3751.77 1139.07,3769.81 1133.43,3782.86C1127.79,3795.91 1121.14,3802.44 1113.46,3802.44Z" style="fill:rgb(255,206,50);fill-rule:nonzero;"/>
                        <path d="M1252.63,3802.44C1240.31,3802.44 1230.55,3785.23 1223.35,3750.82C1216.14,3716.4 1212.54,3667.15 1212.54,3603.06L1212.54,3483.43C1212.54,3419.34 1216.14,3370.09 1223.35,3335.67C1230.55,3301.25 1240.31,3284.05 1252.63,3284.05C1264.86,3284.05 1274.31,3300.78 1280.99,3334.25C1287.67,3367.72 1291.01,3413.64 1291.01,3472.04L1291.01,3476.31L1272.53,3476.31L1272.53,3469.19C1272.53,3439.76 1270.9,3415.54 1267.63,3396.56C1264.36,3377.57 1259.36,3368.07 1252.63,3368.07C1246,3368.07 1240.79,3378.28 1236.99,3398.69C1233.2,3419.1 1231.31,3446.88 1231.31,3482.01L1231.31,3604.48C1231.31,3639.14 1233.2,3666.79 1236.99,3687.44C1240.79,3708.09 1246,3718.42 1252.63,3718.42C1259.36,3718.42 1264.36,3708.8 1267.63,3689.58C1270.9,3670.35 1272.53,3646.26 1272.53,3617.3L1272.53,3604.48L1291.01,3604.48L1291.01,3614.45C1291.01,3672.84 1287.67,3718.77 1280.99,3752.24C1274.31,3785.71 1264.86,3802.44 1252.63,3802.44Z" style="fill:rgb(255,206,50);fill-rule:nonzero;"/>
                        <path d="M1348.16,3792.47L1374.32,3294.01L1407.01,3294.01L1433.17,3792.47L1413.84,3792.47L1408.43,3682.81L1372.9,3682.81L1367.49,3792.47L1348.16,3792.47ZM1377.3,3595.94L1404.03,3595.94L1391.94,3353.12L1389.39,3353.12L1377.3,3595.94Z" style="fill:rgb(255,206,50);fill-rule:nonzero;"/>
                        <path d="M1494.87,3792.47L1494.87,3294.01L1535.81,3294.01C1542.06,3294.01 1547.58,3300.31 1552.37,3312.89C1557.15,3325.47 1560.9,3343.15 1563.6,3365.93C1566.3,3388.72 1567.65,3415.78 1567.65,3447.11L1567.65,3457.08C1567.65,3487.94 1566.25,3514.88 1563.46,3537.9C1560.66,3560.93 1556.87,3578.73 1552.08,3591.31C1547.3,3603.89 1541.87,3610.18 1535.81,3610.18L1513.63,3610.18L1513.63,3792.47L1494.87,3792.47ZM1513.63,3524.73L1533.96,3524.73C1538.41,3524.73 1542.02,3518.56 1544.76,3506.22C1547.51,3493.87 1548.89,3477.02 1548.89,3455.66L1548.89,3448.54C1548.89,3427.17 1547.51,3410.32 1544.76,3397.98C1542.02,3385.64 1538.41,3379.47 1533.96,3379.47L1513.63,3379.47L1513.63,3524.73Z" style="fill:rgb(255,206,50);fill-rule:nonzero;"/>
                        <path d="M1630.48,3792.47L1630.48,3294.01L1694.45,3294.01L1694.45,3379.47L1649.25,3379.47L1649.25,3498.38L1690.47,3498.38L1690.47,3583.83L1649.25,3583.83L1649.25,3707.02L1695.31,3707.02L1695.31,3792.47L1630.48,3792.47Z" style="fill:rgb(255,206,50);fill-rule:nonzero;"/>
                        <path d="M1837.46,3792.47L1863.62,3294.01L1896.32,3294.01L1922.47,3792.47L1903.14,3792.47L1897.74,3682.81L1862.2,3682.81L1856.8,3792.47L1837.46,3792.47ZM1866.61,3595.94L1893.33,3595.94L1881.25,3353.12L1878.69,3353.12L1866.61,3595.94Z" style="fill:rgb(255,206,50);fill-rule:nonzero;"/>
                        <path d="M1984.17,3792.47L1984.17,3294.01L2027.39,3294.01C2033.64,3294.01 2039.09,3299.47 2043.73,3310.39C2048.38,3321.31 2051.98,3336.74 2054.54,3356.68C2057.1,3376.62 2058.38,3400.12 2058.38,3427.17L2058.38,3435.72C2058.38,3465.63 2056.95,3489.84 2054.11,3508.35C2051.27,3526.87 2047.76,3540.4 2043.59,3548.94L2043.59,3561.76C2047.38,3562.71 2050.32,3569.24 2052.41,3581.34C2054.49,3593.45 2055.53,3609.47 2055.53,3629.41L2055.53,3792.47L2036.77,3792.47L2036.77,3642.94C2036.77,3631.54 2036.18,3622.28 2034.99,3615.16C2033.81,3608.04 2031.84,3604.48 2029.09,3604.48L2002.93,3604.48L2002.93,3792.47L1984.17,3792.47ZM2002.93,3519.03L2025.39,3519.03C2029.85,3519.03 2033.33,3512.98 2035.84,3500.88C2038.36,3488.77 2039.61,3472.75 2039.61,3452.81L2039.61,3445.69C2039.61,3425.75 2038.38,3409.73 2035.91,3397.62C2033.45,3385.52 2029.94,3379.47 2025.39,3379.47L2002.93,3379.47L2002.93,3519.03Z" style="fill:rgb(255,206,50);fill-rule:nonzero;"/>
                        <path d="M2161.58,3802.44C2149.26,3802.44 2139.5,3785.23 2132.3,3750.82C2125.1,3716.4 2121.49,3667.15 2121.49,3603.06L2121.49,3483.43C2121.49,3419.34 2125.1,3370.09 2132.3,3335.67C2139.5,3301.25 2149.26,3284.05 2161.58,3284.05C2173.81,3284.05 2183.26,3300.78 2189.94,3334.25C2196.62,3367.72 2199.96,3413.64 2199.96,3472.04L2199.96,3476.31L2181.48,3476.31L2181.48,3469.19C2181.48,3439.76 2179.85,3415.54 2176.58,3396.56C2173.31,3377.57 2168.31,3368.07 2161.58,3368.07C2154.95,3368.07 2149.74,3378.28 2145.94,3398.69C2142.15,3419.1 2140.26,3446.88 2140.26,3482.01L2140.26,3604.48C2140.26,3639.14 2142.15,3666.79 2145.94,3687.44C2149.74,3708.09 2154.95,3718.42 2161.58,3718.42C2168.31,3718.42 2173.31,3708.8 2176.58,3689.58C2179.85,3670.35 2181.48,3646.26 2181.48,3617.3L2181.48,3604.48L2199.96,3604.48L2199.96,3614.45C2199.96,3672.84 2196.62,3718.77 2189.94,3752.24C2183.26,3785.71 2173.81,3802.44 2161.58,3802.44Z" style="fill:rgb(255,206,50);fill-rule:nonzero;"/>
                        <path d="M2265.07,3792.47L2265.07,3294.01L2283.84,3294.01L2283.84,3499.81L2320.8,3499.81L2320.8,3294.01L2339.56,3294.01L2339.56,3792.47L2320.8,3792.47L2320.8,3585.26L2283.84,3585.26L2283.84,3792.47L2265.07,3792.47Z" style="fill:rgb(255,206,50);fill-rule:nonzero;"/>
                        <rect x="2408.08" y="3294.01" width="18.765" height="498.458" style="fill:rgb(255,206,50);fill-rule:nonzero;"/>
                        <path d="M2518.39,3792.47L2518.39,3379.47L2489.39,3379.47L2489.39,3294.01L2566.16,3294.01L2566.16,3379.47L2537.16,3379.47L2537.16,3792.47L2518.39,3792.47Z" style="fill:rgb(255,206,50);fill-rule:nonzero;"/>
                        <path d="M2628.71,3792.47L2628.71,3294.01L2692.68,3294.01L2692.68,3379.47L2647.47,3379.47L2647.47,3498.38L2688.7,3498.38L2688.7,3583.83L2647.47,3583.83L2647.47,3707.02L2693.53,3707.02L2693.53,3792.47L2628.71,3792.47Z" style="fill:rgb(255,206,50);fill-rule:nonzero;"/>
                        <path d="M2795.03,3802.44C2782.71,3802.44 2772.95,3785.23 2765.75,3750.82C2758.55,3716.4 2754.94,3667.15 2754.94,3603.06L2754.94,3483.43C2754.94,3419.34 2758.55,3370.09 2765.75,3335.67C2772.95,3301.25 2782.71,3284.05 2795.03,3284.05C2807.26,3284.05 2816.71,3300.78 2823.39,3334.25C2830.07,3367.72 2833.41,3413.64 2833.41,3472.04L2833.41,3476.31L2814.93,3476.31L2814.93,3469.19C2814.93,3439.76 2813.3,3415.54 2810.03,3396.56C2806.76,3377.57 2801.76,3368.07 2795.03,3368.07C2788.4,3368.07 2783.18,3378.28 2779.39,3398.69C2775.6,3419.1 2773.71,3446.88 2773.71,3482.01L2773.71,3604.48C2773.71,3639.14 2775.6,3666.79 2779.39,3687.44C2783.18,3708.09 2788.4,3718.42 2795.03,3718.42C2801.76,3718.42 2806.76,3708.8 2810.03,3689.58C2813.3,3670.35 2814.93,3646.26 2814.93,3617.3L2814.93,3604.48L2833.41,3604.48L2833.41,3614.45C2833.41,3672.84 2830.07,3718.77 2823.39,3752.24C2816.71,3785.71 2807.26,3802.44 2795.03,3802.44Z" style="fill:rgb(255,206,50);fill-rule:nonzero;"/>
                        <path d="M2919.56,3792.47L2919.56,3379.47L2890.56,3379.47L2890.56,3294.01L2967.33,3294.01L2967.33,3379.47L2938.33,3379.47L2938.33,3792.47L2919.56,3792.47Z" style="fill:rgb(255,206,50);fill-rule:nonzero;"/>
                        <path d="M3062.71,3802.44C3055.04,3802.44 3048.26,3795.56 3042.38,3781.79C3036.51,3768.03 3031.91,3748.32 3028.6,3722.69C3025.28,3697.05 3023.62,3666.2 3023.62,3630.12L3023.62,3610.18L3042.1,3610.18L3042.1,3630.12C3042.1,3660.03 3043.95,3682.46 3047.64,3697.41C3051.34,3712.36 3056.36,3719.84 3062.71,3719.84C3069.16,3719.84 3073.97,3713.43 3077.14,3700.61C3080.32,3687.8 3081.9,3671.42 3081.9,3651.48C3081.9,3637.71 3081.12,3626.56 3079.56,3618.01C3077.99,3609.47 3075.72,3602.47 3072.74,3597.01C3069.75,3591.55 3066.12,3586.44 3061.86,3581.7L3058.59,3578.14C3051.77,3570.54 3045.91,3560.93 3041.03,3549.3C3036.15,3537.67 3032.41,3522.36 3029.8,3503.37C3027.2,3484.38 3025.89,3459.69 3025.89,3429.31C3025.89,3398.93 3027.34,3372.94 3030.23,3351.34C3033.12,3329.74 3037.2,3313.12 3042.45,3301.49C3047.72,3289.86 3053.9,3284.05 3061.01,3284.05C3068.12,3284.05 3074.44,3290.1 3079.99,3302.2C3085.53,3314.31 3089.89,3332.35 3093.06,3356.32C3096.24,3380.3 3097.83,3410.32 3097.83,3446.4L3097.83,3467.76L3079.35,3467.76L3079.35,3446.4C3079.35,3427.41 3078.61,3412.1 3077.14,3400.47C3075.67,3388.84 3073.56,3380.3 3070.82,3374.84C3068.07,3369.38 3064.8,3366.65 3061.01,3366.65C3055.32,3366.65 3051.13,3371.99 3048.43,3382.67C3045.72,3393.35 3044.37,3407.95 3044.37,3426.46C3044.37,3438.81 3045.01,3449.25 3046.29,3457.79C3047.57,3466.34 3049.49,3473.46 3052.05,3479.16C3054.61,3484.85 3057.88,3489.84 3061.86,3494.11L3065.13,3497.67C3072.24,3505.27 3078.42,3515 3083.68,3526.87C3088.94,3538.73 3093.04,3554.4 3095.98,3573.86C3098.91,3593.33 3100.38,3618.25 3100.38,3648.63C3100.38,3679.01 3098.84,3705.72 3095.76,3728.74C3092.68,3751.77 3088.33,3769.81 3082.69,3782.86C3077.05,3795.91 3070.39,3802.44 3062.71,3802.44Z" style="fill:rgb(255,206,50);fill-rule:nonzero;"/>
                    </g>
                </g>
                <g id="Logo" transform="matrix(1,0,0,1,-0.506398,0.0019515)">
                    <g transform="matrix(1.06426,0,0,1.11188,1140.42,-18.5301)">
                        <path d="M381.606,568.503C370.297,555.413 360.581,540.908 352.762,525.292C357.33,522.546 361.905,519.811 366.467,517.054C374.305,512.317 382.085,507.484 389.957,502.805C394.191,500.289 398.478,497.864 402.783,495.472C407.122,493.061 411.483,490.686 415.889,488.398C426.611,482.829 433.774,479.633 435.355,478.928C442.028,475.951 447.198,474.028 448.243,473.639C450.11,472.945 457.602,470.159 471.892,465.84C477.642,464.102 483.425,462.471 489.214,460.869C494.887,459.3 500.574,457.776 506.279,456.328C509.867,455.417 513.463,454.537 517.06,453.664C511.161,459.075 503.186,466.28 492.94,475.303C484.029,483.15 475.024,490.891 465.993,498.601C457.169,506.134 448.306,513.622 439.379,521.032C424.739,533.183 409.944,545.145 395.294,557.284C390.867,560.952 386.513,564.708 382.125,568.423C381.952,568.45 381.779,568.476 381.606,568.503ZM428.534,559.477C435.932,550.447 443.316,541.407 450.772,532.425C458.182,523.497 465.669,514.634 473.203,505.81C480.913,496.78 488.653,487.774 496.501,478.863C503.781,470.596 511.163,462.417 518.574,454.267C517.012,460.721 515.467,467.179 513.829,473.614C512.615,478.386 511.299,483.133 509.946,487.868C508.582,492.641 507.178,497.404 505.68,502.138C502.037,513.656 499.232,520.981 498.612,522.599C495.999,529.422 493.702,534.438 493.239,535.451C492.798,536.413 491.654,538.911 489.623,543.012C484.615,544.535 479.275,546.11 473.596,547.718C465.948,549.883 449.711,554.617 428.534,559.477ZM499.055,540.084C500.634,535.751 502.036,532.335 502.361,531.543C503.226,529.436 506.859,520.581 514.534,505.805C516.822,501.399 519.197,497.038 521.608,492.698C523.999,488.394 526.425,484.107 528.941,479.873C532.333,474.166 535.806,468.508 539.264,462.841C538.921,470.902 538.371,481.846 537.483,495.838C536.803,506.542 536.008,517.238 535.172,527.931C533.257,528.605 531.289,529.292 529.265,529.99C521.539,532.656 511.512,536.139 499.055,540.084ZM544.567,524.566C543.827,514.994 543.126,505.419 542.517,495.838C541.82,484.844 541.256,473.842 540.734,462.838C544.193,468.506 547.666,474.165 551.059,479.873C553.575,484.107 556.001,488.394 558.392,492.698C560.803,497.038 563.178,501.399 565.466,505.805C567.235,509.211 568.765,512.258 570.051,514.881C562.81,517.731 554.478,520.956 544.567,524.566ZM577.536,511.922C576.545,509.026 575.467,505.766 574.32,502.138C572.822,497.404 571.418,492.641 570.054,487.868C568.701,483.133 567.385,478.386 566.171,473.614C564.534,467.18 562.988,460.723 561.427,454.27C566.885,460.213 574.234,468.341 583.499,478.863C590.079,486.335 596.584,493.872 603.058,501.436C592.521,505.942 584.668,509.099 578.487,511.546C578.172,511.67 577.855,511.795 577.536,511.922ZM612.525,497.335C603.991,490.044 595.484,482.721 587.06,475.303C578.792,468.022 570.614,460.641 562.464,453.229C568.917,454.791 575.375,456.337 581.81,457.974C586.583,459.189 591.329,460.505 596.065,461.857C600.838,463.221 605.601,464.626 610.334,466.123C621.853,469.766 629.178,472.572 630.795,473.191C637.619,475.805 642.635,478.101 643.648,478.565C644.377,478.899 645.99,479.637 648.515,480.86C642.157,483.928 635.525,487.034 628.082,490.402C622.407,492.97 617.241,495.268 612.525,497.335ZM658.212,476.113C656.711,475.625 655.211,475.133 653.712,474.638C647.04,472.438 640.843,469.895 639.74,469.442C637.633,468.578 628.778,464.944 614.001,457.27C609.596,454.981 605.235,452.607 600.895,450.196C596.59,447.804 592.303,445.378 588.07,442.862C582.363,439.47 576.705,435.997 571.038,432.539C579.099,432.882 590.043,433.433 604.035,434.321C615.885,435.073 627.726,435.967 639.564,436.901C651.13,437.814 662.692,438.786 674.244,439.859C688.749,441.206 703.24,442.697 717.738,444.118C705.242,451.505 690.497,459.731 673.481,468.413C668.203,471.106 663.206,473.634 658.212,476.113ZM720.692,521.742C721.054,521.957 721.415,522.172 721.777,522.386C723.552,523.439 725.361,524.434 727.168,525.432C719.32,541.077 709.567,555.605 698.214,568.71C693.711,564.902 689.247,561.047 684.706,557.284C681.616,554.723 678.519,552.171 675.419,549.623C691.167,540.781 706.283,531.435 720.692,521.742ZM653.166,561.553C657.26,566.547 661.36,571.537 665.481,576.509C669.243,581.051 673.098,585.514 676.907,590.018C663.802,601.37 649.274,611.123 633.628,618.972C632.631,617.164 631.636,615.355 630.583,613.58C625.645,605.254 620.508,597.048 615.558,588.73C614.057,586.207 612.572,583.675 611.102,581.135C625.51,575.073 639.546,568.515 653.166,561.553ZM595.277,587.524C596.047,590.41 596.801,593.3 597.536,596.194C599.918,605.577 602.088,615.012 604.484,624.391C604.996,626.398 605.574,628.387 606.149,630.378C589.913,635.791 572.796,639.266 555.071,640.53C554.578,634.638 554.146,628.741 553.594,622.854C552.953,616.009 552.281,609.166 551.602,602.324C566.086,598.075 580.67,593.165 595.277,587.524ZM527.762,608.756C527.301,613.454 526.846,618.154 526.406,622.854C525.854,628.741 525.422,634.638 524.929,640.53C507.204,639.266 490.087,635.791 473.851,630.378C474.426,628.387 475.004,626.398 475.516,624.391C475.982,622.569 476.439,620.745 476.89,618.919C493.552,616.35 510.554,613.001 527.762,608.756ZM341.475,498.1C336.029,481.805 332.534,464.621 331.27,446.824C343.931,445.596 356.592,444.357 369.254,443.132C387.543,441.363 405.825,439.503 424.125,437.845C433.957,436.954 443.801,436.196 453.647,435.485C463.571,434.769 473.5,434.106 483.436,433.566C492.978,433.046 501.356,432.679 508.561,432.42C505.32,434.395 502.076,436.365 498.814,438.306C493.756,441.316 488.658,444.26 483.536,447.161C478.31,450.123 473.068,453.058 467.772,455.896C462.749,458.587 457.673,461.181 452.583,463.747C446.309,466.908 440.13,469.492 439.029,469.952C436.928,470.831 428.097,474.523 412.222,479.545C407.489,481.042 402.726,482.446 397.952,483.81C393.217,485.163 388.47,486.479 383.698,487.693C374.823,489.952 365.904,492.035 357.013,494.228C351.83,495.506 346.654,496.809 341.475,498.1Z" style="fill:rgb(41,53,88);"/>
                    </g>
                    <g transform="matrix(1.06426,0,0,1.11188,1140.42,-18.5301)">
                        <path d="M508.561,431.187C501.356,430.927 492.978,430.56 483.436,430.041C473.5,429.501 463.571,428.838 453.647,428.121C443.801,427.411 433.957,426.652 424.125,425.761C413.168,424.768 412.933,424.682 331.27,416.781C332.534,398.985 336.029,381.801 341.475,365.507C346.654,366.798 351.83,368.1 357.013,369.378C365.904,371.572 374.823,373.655 383.698,375.913C388.47,377.128 393.217,378.444 397.952,379.796C402.726,381.16 407.489,382.565 412.222,384.062C423.741,387.706 431.066,390.511 432.683,391.13C439.507,393.744 444.522,396.04 445.535,396.504C447.347,397.333 454.614,400.661 467.772,407.711C473.068,410.548 478.31,413.484 483.536,416.445C488.658,419.347 493.756,422.29 498.814,425.3C502.076,427.242 505.32,429.211 508.561,431.187ZM352.762,338.315C360.63,322.601 370.418,308.013 381.818,294.859C391.629,302.934 401.446,311 411.253,319.078C425.437,330.76 439.679,342.372 453.792,354.14C461.374,360.462 468.871,366.886 476.336,373.346C483.86,379.857 491.349,386.409 498.757,393.053C505.871,399.433 512.055,405.097 517.333,410.009C513.645,409.114 509.958,408.212 506.279,407.278C500.574,405.83 494.887,404.307 489.214,402.737C483.425,401.136 477.642,399.505 471.892,397.767C466.436,396.118 461.012,394.363 455.6,392.577C448.928,390.377 442.731,387.834 441.628,387.382C439.52,386.517 430.665,382.883 415.889,375.209C411.483,372.92 407.122,370.546 402.783,368.135C398.478,365.743 394.191,363.317 389.957,360.801C382.085,356.123 374.305,351.289 366.467,346.553C361.905,343.796 357.33,341.06 352.762,338.315ZM518.206,409.137C513.294,403.858 507.629,397.675 501.249,390.56C494.606,383.153 488.054,375.663 481.543,368.139C475.083,360.674 468.659,353.177 462.336,345.595C455.292,337.147 455.185,336.917 403.056,273.621C416.21,262.221 430.798,252.433 446.511,244.565C449.257,249.134 451.993,253.709 454.749,258.271C459.486,266.109 464.319,273.888 468.998,281.761C471.514,285.994 473.94,290.281 476.331,294.586C478.743,298.926 481.117,303.287 483.405,307.692C488.974,318.414 492.17,325.577 492.876,327.158C495.853,333.832 497.775,339.002 498.164,340.046C498.858,341.913 501.644,349.405 505.963,363.695C507.701,369.445 509.332,375.228 510.934,381.018C512.503,386.691 514.027,392.377 515.475,398.082C516.409,401.761 517.31,405.448 518.206,409.137ZM473.704,233.278C489.998,227.832 507.182,224.338 524.979,223.073C526.207,235.734 527.447,248.395 528.671,261.057C530.44,279.347 532.3,297.628 533.958,315.928C534.849,325.76 535.608,335.604 536.318,345.45C537.034,355.375 537.697,365.304 538.238,375.239C538.757,384.781 539.124,393.159 539.383,400.365C537.408,397.123 535.438,393.879 533.497,390.617C530.487,385.559 527.544,380.461 524.642,375.34C521.68,370.113 518.745,364.871 515.908,359.576C513.216,354.552 510.622,349.476 508.057,344.386C504.895,338.113 502.311,331.933 501.851,330.833C500.973,328.731 497.28,319.9 492.259,304.025C490.761,299.292 489.357,294.529 487.993,289.756C486.64,285.02 485.324,280.274 484.11,275.501C481.851,266.626 479.768,257.707 477.575,248.816C476.297,243.634 474.995,238.457 473.704,233.278ZM540.617,400.365C540.876,393.159 541.243,384.781 541.762,375.239C542.303,365.304 542.966,355.375 543.682,345.45C544.392,335.604 545.151,325.76 546.042,315.928C547.035,304.972 547.121,304.736 555.022,223.073C572.818,224.338 590.002,227.832 606.296,233.278C605.005,238.457 603.703,243.634 602.425,248.816C600.232,257.707 598.149,266.626 595.89,275.501C594.676,280.274 593.36,285.02 592.007,289.756C590.643,294.529 589.239,299.292 587.741,304.025C584.098,315.544 581.292,322.869 580.673,324.486C578.06,331.31 575.763,336.325 575.299,337.339C574.47,339.15 571.143,346.418 564.092,359.576C561.255,364.871 558.32,370.113 555.358,375.34C552.456,380.461 549.513,385.559 546.503,390.617C544.562,393.879 542.592,397.123 540.617,400.365ZM633.489,244.565C649.202,252.433 663.791,262.222 676.945,273.622C668.87,283.432 660.803,293.249 652.725,303.057C641.043,317.24 629.431,331.482 617.664,345.595C611.341,353.177 604.917,360.674 598.457,368.139C591.946,375.663 585.394,383.153 578.751,390.56C572.371,397.675 566.706,403.858 561.794,409.137C562.69,405.448 563.591,401.761 564.525,398.082C565.973,392.377 567.497,386.691 569.066,381.018C570.668,375.228 572.299,369.445 574.037,363.695C575.686,358.239 577.441,352.816 579.226,347.403C581.426,340.731 583.969,334.534 584.422,333.431C585.286,331.324 588.92,322.468 596.595,307.692C598.883,303.287 601.257,298.926 603.669,294.586C606.06,290.281 608.486,285.994 611.002,281.761C615.681,273.888 620.514,266.109 625.251,258.271C628.007,253.709 630.743,249.134 633.489,244.565ZM562.203,410.44C567.582,405.43 573.919,399.62 581.243,393.053C588.651,386.409 596.14,379.857 603.664,373.346C611.129,366.886 618.626,360.462 626.208,354.14C634.656,347.095 634.886,346.989 698.182,294.859C709.548,307.974 719.312,322.515 727.168,338.175C725.361,339.172 723.552,340.167 721.777,341.22C713.451,346.158 705.245,351.295 696.926,356.245C691.868,359.255 686.77,362.199 681.649,365.101C676.422,368.062 671.18,370.998 665.885,373.835C660.861,376.527 655.785,379.121 650.695,381.686C644.422,384.848 638.242,387.431 637.142,387.891C635.04,388.77 626.209,392.462 610.334,397.484C605.601,398.981 600.838,400.386 596.065,401.749C591.329,403.102 586.583,404.418 581.81,405.632C575.289,407.292 568.744,408.857 562.203,410.44ZM738.575,365.654C743.987,381.89 747.463,399.008 748.727,416.733C742.835,417.226 736.937,417.657 731.051,418.209C712.108,419.985 693.188,421.988 674.244,423.747C662.692,424.82 651.13,425.793 639.564,426.705C627.726,427.639 615.885,428.534 604.035,429.286C593.041,429.984 582.038,430.547 571.035,431.07C576.703,427.61 582.362,424.137 588.07,420.745C592.303,418.229 596.59,415.803 600.895,413.411C605.235,411 609.596,408.625 614.001,406.337C624.723,400.768 631.886,397.573 633.468,396.867C640.141,393.89 645.311,391.967 646.355,391.579C648.223,390.884 655.714,388.098 670.004,383.779C675.754,382.041 681.537,380.41 687.327,378.808C693,377.239 698.686,375.715 704.391,374.267C713.773,371.886 723.209,369.715 732.587,367.32C734.594,366.807 736.584,366.229 738.575,365.654Z" style="fill:url(#_Linear1);"/>
                    </g>
                    <g transform="matrix(1.7172,-0.724834,0.248385,0.642281,685.407,560.794)">
                        <path d="M638.053,259.502C638.053,259.502 634.68,245.166 634.68,245.166C702.653,279.747 749.262,350.375 749.262,431.803C749.262,547.298 653.756,704.803 538.261,704.803C422.766,704.803 330.519,547.297 330.738,431.803C330.892,349.912 377.787,287.357 431.619,256.744C430.321,261.649 429.574,265.424 428.361,270.573C408.364,286.834 388.471,302.255 368.633,335.091C360.809,348.041 336.989,390.094 340.419,438.839C342.828,473.068 358.615,510.278 387.834,540.25C388.113,540.536 394.367,547.179 405.36,556.103C435.628,580.675 464.928,588.74 473.989,591.486C488.842,595.986 500.077,597.524 507.666,598.62C520.955,600.54 530.482,600.63 538.021,600.78C544.429,600.907 553.759,600.889 569.169,599.126C580.108,597.874 588.407,596.092 598.258,593.669C629.959,585.874 650.758,572.342 658.934,567.106C693.323,545.084 710.674,518.036 717.647,506.273C726.628,491.123 738.803,465.127 739.678,433.121C739.898,425.07 740.222,397.983 724.971,362.066C709.078,324.639 680.313,286.996 638.053,259.502Z" style="fill:url(#_Radial2);"/>
                    </g>
                </g>
            </g>
        </g>
    </g>
    <defs>
        <linearGradient id="_Linear1" x1="0" y1="0" x2="1" y2="0" gradientUnits="userSpaceOnUse" gradientTransform="matrix(1.27809e-14,-208.729,104.057,6.37164e-15,539.998,431.802)"><stop offset="0" style="stop-color:rgb(86,109,176);stop-opacity:1"/><stop offset="0.56" style="stop-color:rgb(77,98,158);stop-opacity:1"/><stop offset="1" style="stop-color:rgb(41,53,88);stop-opacity:1"/></linearGradient>
        <radialGradient id="_Radial2" cx="0" cy="0" r="1" gradientUnits="userSpaceOnUse" gradientTransform="matrix(-47.0059,-1269.97,162.774,-47.0059,540.092,675.86)"><stop offset="0" style="stop-color:rgb(86,109,176);stop-opacity:1"/><stop offset="0.56" style="stop-color:rgb(77,98,158);stop-opacity:1"/><stop offset="1" style="stop-color:rgb(41,53,88);stop-opacity:1"/></radialGradient>
    </defs>
</svg>
