<?xml version="1.0" encoding="UTF-8" standalone="no"?>
<!DOCTYPE svg PUBLIC "-//W3C//DTD SVG 1.1//EN" "http://www.w3.org/Graphics/SVG/1.1/DTD/svg11.dtd">
<svg width="100%" height="100%" viewBox="0 0 671 671" version="1.1" xmlns="http://www.w3.org/2000/svg" xmlns:xlink="http://www.w3.org/1999/xlink" xml:space="preserve" xmlns:serif="http://www.serif.com/" style="fill-rule:evenodd;clip-rule:evenodd;stroke-linejoin:round;stroke-miterlimit:2;">
    <g transform="matrix(1,0,0,1,-2846.61,-9363.11)">
        <g transform="matrix(1.50833,0,0,1.44374,595.356,8918.56)">
            <g id="Logo---World-Only" serif:id="Logo - World Only" transform="matrix(1,0,0,1,-0.42715,78.4167)">
                <g transform="matrix(1.06426,0,0,1.11188,1140.42,-18.5301)">
                    <path d="M341.475,498.1C336.029,481.805 332.534,464.621 331.27,446.824C343.931,445.596 356.592,444.357 369.254,443.132C387.543,441.363 405.825,439.503 424.125,437.845C433.957,436.954 443.801,436.196 453.647,435.485C463.571,434.769 473.5,434.106 483.436,433.566C492.978,433.046 501.356,432.679 508.561,432.42C505.32,434.395 502.076,436.365 498.814,438.306C493.756,441.316 488.658,444.26 483.536,447.161C478.31,450.123 473.068,453.058 467.772,455.896C462.749,458.587 457.673,461.181 452.583,463.747C446.309,466.908 440.13,469.492 439.029,469.952C436.928,470.831 428.097,474.523 412.222,479.545C407.489,481.042 402.726,482.446 397.952,483.81C393.217,485.163 388.47,486.479 383.698,487.693C374.823,489.952 365.904,492.035 357.013,494.228C351.83,495.506 346.654,496.809 341.475,498.1ZM571.038,432.539C579.099,432.882 590.043,433.433 604.035,434.321C615.885,435.073 627.726,435.967 639.564,436.901C651.13,437.814 662.692,438.786 674.244,439.859C693.188,441.619 712.108,443.622 731.051,445.398C736.937,445.95 742.835,446.381 748.727,446.874C747.463,464.599 743.987,481.717 738.575,497.952C736.584,497.377 734.594,496.8 732.587,496.287C723.209,493.891 713.773,491.721 704.391,489.339C698.686,487.891 693,486.367 687.327,484.798C681.537,483.197 675.754,481.565 670.004,479.827C664.548,478.178 659.125,476.423 653.712,474.638C647.04,472.438 640.843,469.895 639.74,469.442C637.633,468.578 628.778,464.944 614.001,457.27C609.596,454.981 605.235,452.607 600.895,450.196C596.59,447.804 592.303,445.378 588.07,442.862C582.363,439.47 576.705,435.997 571.038,432.539ZM727.168,525.432C719.32,541.077 709.567,555.605 698.214,568.71C693.711,564.902 689.247,561.047 684.706,557.284C670.056,545.145 655.261,533.183 640.621,521.032C631.694,513.622 622.831,506.134 614.007,498.601C604.976,490.891 595.971,483.15 587.06,475.303C578.792,468.022 570.614,460.641 562.464,453.229C568.917,454.791 575.375,456.337 581.81,457.974C586.583,459.189 591.329,460.505 596.065,461.857C600.838,463.221 605.601,464.626 610.334,466.123C621.853,469.766 629.178,472.572 630.795,473.191C637.619,475.805 642.635,478.101 643.648,478.565C645.459,479.394 652.727,482.722 665.885,489.772C671.18,492.609 676.422,495.544 681.649,498.506C686.77,501.408 691.868,504.351 696.926,507.361C705.245,512.312 713.451,517.449 721.777,522.386C723.552,523.439 725.361,524.434 727.168,525.432ZM561.427,454.27C566.885,460.213 574.234,468.341 583.499,478.863C591.347,487.774 599.087,496.78 606.797,505.81C614.331,514.634 621.818,523.497 629.228,532.425C641.38,547.064 653.342,561.859 665.481,576.509C669.243,581.051 673.098,585.514 676.907,590.018C663.802,601.37 649.274,611.123 633.628,618.972C632.631,617.164 631.636,615.355 630.583,613.58C625.645,605.254 620.508,597.048 615.558,588.73C612.548,583.671 609.605,578.573 606.703,573.452C603.741,568.226 600.806,562.983 597.969,557.688C595.277,552.664 592.683,547.588 590.118,542.499C586.956,536.225 584.372,530.045 583.912,528.945C583.033,526.844 579.341,518.013 574.32,502.138C572.822,497.404 571.418,492.641 570.054,487.868C568.701,483.133 567.385,478.386 566.171,473.614C564.534,467.18 562.988,460.723 561.427,454.27ZM606.149,630.378C589.913,635.791 572.796,639.266 555.071,640.53C554.578,634.638 554.146,628.741 553.594,622.854C551.819,603.912 549.815,584.991 548.056,566.047C546.983,554.495 546.01,542.933 545.098,531.367C544.164,519.53 543.27,507.689 542.517,495.838C541.82,484.844 541.256,473.842 540.734,462.838C544.193,468.506 547.666,474.165 551.059,479.873C553.575,484.107 556.001,488.394 558.392,492.698C560.803,497.038 563.178,501.399 565.466,505.805C571.035,516.526 574.231,523.689 574.936,525.271C577.914,531.944 579.836,537.114 580.225,538.159C580.919,540.026 583.705,547.518 588.024,561.807C589.762,567.558 591.393,573.34 592.995,579.13C594.564,584.803 596.088,590.489 597.536,596.194C599.918,605.577 602.088,615.012 604.484,624.391C604.996,626.398 605.574,628.387 606.149,630.378ZM539.264,462.841C538.921,470.902 538.371,481.846 537.483,495.838C536.73,507.689 535.836,519.53 534.902,531.367C533.99,542.933 533.017,554.495 531.944,566.047C530.185,584.991 528.181,603.912 526.406,622.854C525.854,628.741 525.422,634.638 524.929,640.53C507.204,639.266 490.087,635.791 473.851,630.378C474.426,628.387 475.004,626.398 475.516,624.391C477.912,615.012 480.082,605.577 482.464,596.194C483.912,590.489 485.436,584.803 487.005,579.13C488.607,573.34 490.238,567.558 491.976,561.807C493.625,556.351 495.38,550.928 497.165,545.515C499.365,538.843 501.908,532.647 502.361,531.543C503.226,529.436 506.859,520.581 514.534,505.805C516.822,501.399 519.197,497.038 521.608,492.698C523.999,488.394 526.425,484.107 528.941,479.873C532.333,474.166 535.806,468.508 539.264,462.841ZM446.372,618.972C430.726,611.123 416.198,601.37 403.093,590.018C406.902,585.514 410.757,581.051 414.519,576.509C426.658,561.859 438.62,547.064 450.772,532.425C458.182,523.497 465.669,514.634 473.203,505.81C480.913,496.78 488.653,487.774 496.501,478.863C503.781,470.596 511.163,462.417 518.574,454.267C517.012,460.721 515.467,467.179 513.829,473.614C512.615,478.386 511.299,483.133 509.946,487.868C508.582,492.641 507.178,497.404 505.68,502.138C502.037,513.656 499.232,520.981 498.612,522.599C495.999,529.422 493.702,534.438 493.239,535.451C492.409,537.262 489.082,544.53 482.031,557.688C479.194,562.983 476.259,568.226 473.297,573.452C470.395,578.573 467.452,583.671 464.442,588.73C459.492,597.048 454.355,605.254 449.417,613.58C448.364,615.355 447.369,617.164 446.372,618.972ZM517.06,453.664C511.161,459.075 503.186,466.28 492.94,475.303C484.029,483.15 475.024,490.891 465.993,498.601C457.169,506.134 448.306,513.622 439.379,521.032C424.739,533.183 409.944,545.145 395.294,557.284C390.753,561.047 386.289,564.902 381.786,568.71C370.399,555.566 360.622,540.991 352.762,525.292C357.33,522.546 361.905,519.811 366.467,517.054C374.305,512.317 382.085,507.484 389.957,502.805C394.191,500.289 398.478,497.864 402.783,495.472C407.122,493.061 411.483,490.686 415.889,488.398C426.611,482.829 433.774,479.633 435.355,478.928C442.028,475.951 447.198,474.028 448.243,473.639C450.11,472.945 457.602,470.159 471.892,465.84C477.642,464.102 483.425,462.471 489.214,460.869C494.887,459.3 500.574,457.776 506.279,456.328C509.867,455.417 513.463,454.537 517.06,453.664Z" style="fill:rgb(41,53,88);"/>
                </g>
                <g transform="matrix(1.06426,0,0,1.11188,1140.42,-18.5301)">
                    <path d="M508.561,431.187C501.356,430.927 492.978,430.56 483.436,430.041C473.5,429.501 463.571,428.838 453.647,428.121C443.801,427.411 433.957,426.652 424.125,425.761C413.168,424.768 412.933,424.682 331.27,416.781C332.534,398.985 336.029,381.801 341.475,365.507C346.654,366.798 351.83,368.1 357.013,369.378C365.904,371.572 374.823,373.655 383.698,375.913C388.47,377.128 393.217,378.444 397.952,379.796C402.726,381.16 407.489,382.565 412.222,384.062C423.741,387.706 431.066,390.511 432.683,391.13C439.507,393.744 444.522,396.04 445.535,396.504C447.347,397.333 454.614,400.661 467.772,407.711C473.068,410.548 478.31,413.484 483.536,416.445C488.658,419.347 493.756,422.29 498.814,425.3C502.076,427.242 505.32,429.211 508.561,431.187ZM352.762,338.315C360.63,322.601 370.418,308.013 381.818,294.859C391.629,302.934 401.446,311 411.253,319.078C425.437,330.76 439.679,342.372 453.792,354.14C461.374,360.462 468.871,366.886 476.336,373.346C483.86,379.857 491.349,386.409 498.757,393.053C505.871,399.433 512.055,405.097 517.333,410.009C513.645,409.114 509.958,408.212 506.279,407.278C500.574,405.83 494.887,404.307 489.214,402.737C483.425,401.136 477.642,399.505 471.892,397.767C466.436,396.118 461.012,394.363 455.6,392.577C448.928,390.377 442.731,387.834 441.628,387.382C439.52,386.517 430.665,382.883 415.889,375.209C411.483,372.92 407.122,370.546 402.783,368.135C398.478,365.743 394.191,363.317 389.957,360.801C382.085,356.123 374.305,351.289 366.467,346.553C361.905,343.796 357.33,341.06 352.762,338.315ZM518.206,409.137C513.294,403.858 507.629,397.675 501.249,390.56C494.606,383.153 488.054,375.663 481.543,368.139C475.083,360.674 468.659,353.177 462.336,345.595C455.292,337.147 455.185,336.917 403.056,273.621C416.21,262.221 430.798,252.433 446.511,244.565C449.257,249.134 451.993,253.709 454.749,258.271C459.486,266.109 464.319,273.888 468.998,281.761C471.514,285.994 473.94,290.281 476.331,294.586C478.743,298.926 481.117,303.287 483.405,307.692C488.974,318.414 492.17,325.577 492.876,327.158C495.853,333.832 497.775,339.002 498.164,340.046C498.858,341.913 501.644,349.405 505.963,363.695C507.701,369.445 509.332,375.228 510.934,381.018C512.503,386.691 514.027,392.377 515.475,398.082C516.409,401.761 517.31,405.448 518.206,409.137ZM473.704,233.278C489.998,227.832 507.182,224.338 524.979,223.073C526.207,235.734 527.447,248.395 528.671,261.057C530.44,279.347 532.3,297.628 533.958,315.928C534.849,325.76 535.608,335.604 536.318,345.45C537.034,355.375 537.697,365.304 538.238,375.239C538.757,384.781 539.124,393.159 539.383,400.365C537.408,397.123 535.438,393.879 533.497,390.617C530.487,385.559 527.544,380.461 524.642,375.34C521.68,370.113 518.745,364.871 515.908,359.576C513.216,354.552 510.622,349.476 508.057,344.386C504.895,338.113 502.311,331.933 501.851,330.833C500.973,328.731 497.28,319.9 492.259,304.025C490.761,299.292 489.357,294.529 487.993,289.756C486.64,285.02 485.324,280.274 484.11,275.501C481.851,266.626 479.768,257.707 477.575,248.816C476.297,243.634 474.995,238.457 473.704,233.278ZM540.617,400.365C540.876,393.159 541.243,384.781 541.762,375.239C542.303,365.304 542.966,355.375 543.682,345.45C544.392,335.604 545.151,325.76 546.042,315.928C547.035,304.972 547.121,304.736 555.022,223.073C572.818,224.338 590.002,227.832 606.296,233.278C605.005,238.457 603.703,243.634 602.425,248.816C600.232,257.707 598.149,266.626 595.89,275.501C594.676,280.274 593.36,285.02 592.007,289.756C590.643,294.529 589.239,299.292 587.741,304.025C584.098,315.544 581.292,322.869 580.673,324.486C578.06,331.31 575.763,336.325 575.299,337.339C574.47,339.15 571.143,346.418 564.092,359.576C561.255,364.871 558.32,370.113 555.358,375.34C552.456,380.461 549.513,385.559 546.503,390.617C544.562,393.879 542.592,397.123 540.617,400.365ZM633.489,244.565C649.202,252.433 663.791,262.222 676.945,273.622C668.87,283.432 660.803,293.249 652.725,303.057C641.043,317.24 629.431,331.482 617.664,345.595C611.341,353.177 604.917,360.674 598.457,368.139C591.946,375.663 585.394,383.153 578.751,390.56C572.371,397.675 566.706,403.858 561.794,409.137C562.69,405.448 563.591,401.761 564.525,398.082C565.973,392.377 567.497,386.691 569.066,381.018C570.668,375.228 572.299,369.445 574.037,363.695C575.686,358.239 577.441,352.816 579.226,347.403C581.426,340.731 583.969,334.534 584.422,333.431C585.286,331.324 588.92,322.468 596.595,307.692C598.883,303.287 601.257,298.926 603.669,294.586C606.06,290.281 608.486,285.994 611.002,281.761C615.681,273.888 620.514,266.109 625.251,258.271C628.007,253.709 630.743,249.134 633.489,244.565ZM562.203,410.44C567.582,405.43 573.919,399.62 581.243,393.053C588.651,386.409 596.14,379.857 603.664,373.346C611.129,366.886 618.626,360.462 626.208,354.14C634.656,347.095 634.886,346.989 698.182,294.859C709.548,307.974 719.312,322.515 727.168,338.175C725.361,339.172 723.552,340.167 721.777,341.22C713.451,346.158 705.245,351.295 696.926,356.245C691.868,359.255 686.77,362.199 681.649,365.101C676.422,368.062 671.18,370.998 665.885,373.835C660.861,376.527 655.785,379.121 650.695,381.686C644.422,384.848 638.242,387.431 637.142,387.891C635.04,388.77 626.209,392.462 610.334,397.484C605.601,398.981 600.838,400.386 596.065,401.749C591.329,403.102 586.583,404.418 581.81,405.632C575.289,407.292 568.744,408.857 562.203,410.44ZM738.575,365.654C743.987,381.89 747.463,399.008 748.727,416.733C742.835,417.226 736.937,417.657 731.051,418.209C712.108,419.985 693.188,421.988 674.244,423.747C662.692,424.82 651.13,425.793 639.564,426.705C627.726,427.639 615.885,428.534 604.035,429.286C593.041,429.984 582.038,430.547 571.035,431.07C576.703,427.61 582.362,424.137 588.07,420.745C592.303,418.229 596.59,415.803 600.895,413.411C605.235,411 609.596,408.625 614.001,406.337C624.723,400.768 631.886,397.573 633.468,396.867C640.141,393.89 645.311,391.967 646.355,391.579C648.223,390.884 655.714,388.098 670.004,383.779C675.754,382.041 681.537,380.41 687.327,378.808C693,377.239 698.686,375.715 704.391,374.267C713.773,371.886 723.209,369.715 732.587,367.32C734.594,366.807 736.584,366.229 738.575,365.654Z" style="fill:rgb(86,109,176);"/>
                </g>
            </g>
        </g>
    </g>
</svg>
